# xmcd CD database file
#
# Track frame offsets:
#	150
#	20245
#	35452
#	66945
#
# Disc length: 1162 seconds
#
# Revision: 2
# Processed by: cddbd v1.5PL3 Copyright (c) Steve Scherf et al.
# Submitted via: CDex 1.50beta9
#
DISCID=33048804
DTITLE=陰陽座 - 妖花忍法帖
DYEAR=2002
DGENRE=Metal
TTITLE0=妖花忍法帖
TTITLE1=わいら
TTITLE2=目々連
TTITLE3=妖花忍法帖(からおけ)
EXTD=YEAR: 2002
EXTT0=
EXTT1=
EXTT2=
EXTT3=
PLAYORDER=
